HIERARCHY
ROOT Hips
{
	OFFSET 0.000000 0.000000 0.000000
	CHANNELS 6 Xposition Yposition Zposition Xrotation Yrotation Zrotation
	JOINT LeftUpLeg_virtual
	{
		OFFSET 0.000000 0.000000 0.000000
		CHANNELS 3 Xrotation Yrotation Zrotation
		JOINT LeftUpLeg
		{
			OFFSET 13.026900 -6.336304 -1.092800
			CHANNELS 3 Xrotation Yrotation Zrotation
			JOINT LeftLeg
			{
				OFFSET 0.524474 -46.096886 9.782700
				CHANNELS 3 Xrotation Yrotation Zrotation
				JOINT LeftFoot
				{
					OFFSET -0.524474 -53.427422 -12.948200
					CHANNELS 3 Xrotation Yrotation Zrotation
					JOINT LeftToeBase
					{
						OFFSET 0.192200 -14.009700 16.364100
						CHANNELS 3 Xrotation Yrotation Zrotation
						JOINT LeftToe_End
						{
							OFFSET -1.784700 -0.561700 9.474800
							CHANNELS 3 Xrotation Yrotation Zrotation
							End Site
							{
								OFFSET 0 0 0
							}
						}
					}
				}
			}
		}
	}
	JOINT RightUpLeg_virtual
	{
		OFFSET 0.000000 0.000000 0.000000
		CHANNELS 3 Xrotation Yrotation Zrotation
		JOINT RightUpLeg
		{
			OFFSET -12.883000 -6.336304 -1.092800
			CHANNELS 3 Xrotation Yrotation Zrotation
			JOINT RightLeg
			{
				OFFSET -0.524587 -46.096825 9.782800
				CHANNELS 3 Xrotation Yrotation Zrotation
				JOINT RightFoot
				{
					OFFSET 0.524587 -53.427383 -12.948300
					CHANNELS 3 Xrotation Yrotation Zrotation
					JOINT RightToeBase
					{
						OFFSET -0.192200 -14.009700 16.364100
						CHANNELS 3 Xrotation Yrotation Zrotation
						JOINT RightToe_End
						{
							OFFSET 1.784700 -0.561700 9.474800
							CHANNELS 3 Xrotation Yrotation Zrotation
							End Site
							{
								OFFSET 0 0 0
							}
						}
					}
				}
			}
		}
	}
	JOINT Spine_virtual
	{
		OFFSET 0.000000 0.000000 0.000000
		CHANNELS 3 Xrotation Yrotation Zrotation
		JOINT Spine
		{
			OFFSET 0.072000 7.257294 -0.789700
			CHANNELS 3 Xrotation Yrotation Zrotation
			JOINT Spine1
			{
				OFFSET 0.000000 12.508769 -0.658067
				CHANNELS 3 Xrotation Yrotation Zrotation
				JOINT Spine1_split
				{
					OFFSET 0.000000 12.508769 -0.658067
					CHANNELS 3 Xrotation Yrotation Zrotation
					JOINT Spine2
					{
						OFFSET 0.000000 12.508769 -0.658067
						CHANNELS 3 Xrotation Yrotation Zrotation
						JOINT Neck_virtual
						{
							OFFSET 0.000000 0.000000 0.000000
							CHANNELS 3 Xrotation Yrotation Zrotation
							JOINT Neck
							{
								OFFSET 0.000000 14.033295 7.520400
								CHANNELS 3 Xrotation Yrotation Zrotation
								JOINT Head
								{
									OFFSET 0.000000 8.198502 5.703100
									CHANNELS 3 Xrotation Yrotation Zrotation
									JOINT HeadTop_End
									{
										OFFSET 0.000000 17.760803 13.332701
										CHANNELS 3 Xrotation Yrotation Zrotation
										End Site
										{
											OFFSET 0 0 0
										}
									}
								}
							}
						}
						JOINT LeftShoulder_virtual
						{
							OFFSET 0.000000 0.000000 0.000000
							CHANNELS 3 Xrotation Yrotation Zrotation
							JOINT LeftShoulder
							{
								OFFSET 6.292450 5.785301 -0.669000
								CHANNELS 3 Xrotation Yrotation Zrotation
								JOINT LeftShoulder_split
								{
									OFFSET 6.292450 5.785301 -0.669000
									CHANNELS 3 Xrotation Yrotation Zrotation
									JOINT LeftArm
									{
										OFFSET 13.907140 -6.093903 1.965100
										CHANNELS 3 Xrotation Yrotation Zrotation
										JOINT LeftForeArm
										{
											OFFSET 34.140198 0.000000 0.000000
											CHANNELS 3 Xrotation Yrotation Zrotation
											JOINT LeftHand
											{
												OFFSET 40.960209 0.000000 0.000000
												CHANNELS 3 Xrotation Yrotation Zrotation
												End Site
												{
													OFFSET 0 0 0
												}
											}
										}
									}
								}
							}
						}
						JOINT RightShoulder_virtual
						{
							OFFSET 0.000000 0.000000 0.000000
							CHANNELS 3 Xrotation Yrotation Zrotation
							JOINT RightShoulder
							{
								OFFSET -6.292450 5.785301 -0.669000
								CHANNELS 3 Xrotation Yrotation Zrotation
								JOINT RightShoulder_split
								{
									OFFSET -6.292450 5.785301 -0.669000
									CHANNELS 3 Xrotation Yrotation Zrotation
									JOINT RightArm
									{
										OFFSET -13.907140 -6.093903 1.965100
										CHANNELS 3 Xrotation Yrotation Zrotation
										JOINT RightForeArm
										{
											OFFSET -34.140198 0.000000 0.000000
											CHANNELS 3 Xrotation Yrotation Zrotation
											JOINT RightHand
											{
												OFFSET -40.960209 0.000000 0.000000
												CHANNELS 3 Xrotation Yrotation Zrotation
												End Site
												{
													OFFSET 0 0 0
												}
											}
										}
									}
								}
							}
						}
					}
				}
			}
		}
	}
}
MOTION
Frames: 4
Frame Time: 0.03333333
0.515427 93.813591 5.830101 0.000000 0.000000 0.000000 -1.942080 -46.545530 3.173423 -33.961654 12.113165 18.678916 53.309708 -8.290099 -1.542815 -22.630462 -9.960998 -9.676220 -2.311260 -0.679369 0.361188 0.000000 0.000000 0.000000 -3.213225 -44.684542 3.725245 -22.901339 -10.949357 -32.191129 54.498762 -5.331550 -8.221267 -18.226000 -7.720661 26.061661 -4.065123 0.076027 0.329294 0.000000 0.000000 0.000000 -1.352553 -46.834132 4.328744 9.016597 12.200560 -2.662792 0.544092 3.926447 -1.714776 0.419989 -1.838975 1.295294 0.000000 0.000000 0.000000 1.784705 4.047239 -1.723843 -8.665332 11.773920 3.907321 6.375008 17.131870 0.859319 0.000000 0.000000 0.000000 1.557070 4.115773 -1.357566 0.747291 0.202776 -4.479005 -0.562331 -3.905902 1.262510 6.242414 1.241744 -38.921901 178.368901 -49.323579 178.902462 0.000000 0.000000 0.000000 1.357963 3.746478 -1.594202 1.474564 13.192405 -4.683067 -6.828997 -1.111869 2.656374 -59.977414 20.337851 64.699008 -166.065395 79.093024 164.867898 0.000000 0.000000 0.000000 
1.094475 93.874397 5.715950 0.000000 0.000000 0.000000 -1.810374 -51.609097 2.697911 -32.245169 11.986205 19.123674 53.133838 -7.149861 -2.492538 -24.837908 -6.318964 -8.905727 -2.578211 -0.715399 0.591661 0.000000 0.000000 0.000000 -2.886731 -49.019469 3.419418 -25.302712 -7.169302 -31.070271 55.044273 -3.823880 -9.144273 -18.035239 -5.749703 26.435192 -3.946758 0.200958 0.104968 0.000000 0.000000 0.000000 -0.829167 -50.649780 4.293967 9.207191 11.630899 -1.801522 0.879943 3.800134 -1.665962 0.463583 -1.659329 1.207666 0.000000 0.000000 0.000000 2.138827 3.957494 -1.641841 -8.886634 12.858173 3.619130 5.470948 20.215985 -0.887861 0.000000 0.000000 0.000000 1.631509 4.028316 -1.246225 0.961020 0.694240 -2.485560 0.167447 -4.493802 0.340699 2.130641 5.613781 -33.953123 178.780447 -53.852968 179.169659 0.000000 0.000000 0.000000 1.412287 3.642805 -1.467475 1.223615 10.663977 -2.761197 -5.992255 -1.272129 2.980548 -60.942677 23.096901 69.921213 -172.364537 74.431112 171.036311 0.000000 0.000000 0.000000 
1.492805 93.739113 5.583519 0.000000 0.000000 0.000000 -1.610781 -56.710678 1.883569 -30.966445 10.979235 19.781162 53.870651 -6.086183 -2.749557 -26.832477 -2.763281 -8.147526 -2.649967 -0.706294 0.637310 0.000000 0.000000 0.000000 -2.623554 -53.138967 2.631165 -27.293455 -4.520091 -29.283313 54.831396 -2.567343 -9.882023 -18.126641 -4.069047 26.498177 -3.895906 0.367525 -0.093852 0.000000 0.000000 0.000000 -0.093678 -54.162198 3.811480 9.339438 10.527745 -1.150388 1.220287 3.218477 -1.612717 0.787433 -1.484047 1.085109 0.000000 0.000000 0.000000 2.455338 3.303248 -1.513080 -9.053207 14.277950 3.355379 4.903401 23.446622 -2.820222 0.000000 0.000000 0.000000 1.782783 3.373495 -1.171511 1.091713 1.044214 -0.135407 0.152607 -3.150695 -0.570024 -6.596092 6.000592 -26.470808 178.720806 -66.083685 179.159782 0.000000 0.000000 0.000000 1.549623 3.035598 -1.442581 0.985811 9.039508 -1.186847 -5.328968 -1.997767 2.954735 -61.341997 25.948123 74.288211 -176.183227 70.266466 174.583884 0.000000 0.000000 0.000000 
1.671310 93.555756 5.208412 0.000000 0.000000 0.000000 -1.587678 -60.458540 0.738754 -30.480795 9.209750 20.506473 55.279839 -5.474488 -2.245817 -28.172048 0.084217 -7.903985 -2.480622 -0.650261 0.555455 0.000000 0.000000 0.000000 -2.681079 -56.202406 1.328679 -28.314025 -3.489742 -27.216065 53.933004 -1.976394 -10.290140 -18.624982 -3.024709 25.947597 -3.770859 0.535755 -0.123982 0.000000 0.000000 0.000000 0.513837 -56.686629 2.876095 9.396261 8.878498 -0.707961 1.451752 2.178214 -1.596728 1.170365 -1.179536 0.798606 0.000000 0.000000 0.000000 2.589660 2.099231 -1.461916 -8.989791 15.835070 3.203091 5.125643 26.474824 -4.805707 0.000000 0.000000 0.000000 2.162015 2.144730 -1.223955 1.181058 1.113434 2.024407 -0.829027 -0.411673 -1.292148 -17.491319 1.494481 -19.133409 172.619958 -85.803480 173.134162 0.000000 0.000000 0.000000 1.746244 1.907202 -1.537342 0.798414 8.328290 0.027456 -5.353662 -2.713396 2.461999 -59.670049 28.916326 77.376030 -178.604365 66.337140 176.620660 0.000000 0.000000 0.000000 
